<svg width="512" height="512" viewBox="0 0 512 512" fill="none" xmlns="http://www.w3.org/2000/svg">
<path d="M213.333 192H298.667M213.333 277.333H298.667" stroke="#003658" stroke-width="20" stroke-linecap="round" stroke-linejoin="round"/>
<path d="M128 106.667V448H362.667C368.325 448 373.751 445.752 377.752 441.752C381.752 437.751 384 432.325 384 426.667V128C384 122.342 381.752 116.916 377.752 112.915C373.751 108.914 368.325 106.667 362.667 106.667H128ZM128 106.667L315.733 64C319.096 63.2771 322.584 63.3779 325.899 64.294C329.214 65.21 332.259 66.9141 334.773 69.2609C337.288 71.6078 339.198 74.5278 340.34 77.7721C341.482 81.0164 341.823 84.4888 341.333 87.8933V106.667H128Z" stroke="#003658" stroke-width="20" stroke-linecap="round" stroke-linejoin="round"/>
</svg>
