<svg width="512" height="512" viewBox="0 0 512 512" fill="none" xmlns="http://www.w3.org/2000/svg">
<g clip-path="url(#clip0_307_142)">
<path d="M134.397 -0.134718C135.716 -0.141405 135.716 -0.141405 137.061 -0.148227C138.022 -0.148042 138.983 -0.147858 139.974 -0.147668C141.511 -0.153183 141.511 -0.153183 143.079 -0.15881C146.524 -0.16985 149.968 -0.173691 153.412 -0.177499C155.878 -0.183763 158.343 -0.19041 160.809 -0.197412C168.215 -0.216641 175.622 -0.227241 183.029 -0.23614C186.52 -0.240526 190.01 -0.245892 193.501 -0.251128C205.11 -0.26814 216.72 -0.282633 228.329 -0.289877C231.34 -0.291787 234.352 -0.293707 237.364 -0.295663C238.486 -0.296389 238.486 -0.296389 239.632 -0.297129C251.749 -0.305424 263.866 -0.330753 275.983 -0.363244C288.432 -0.396353 300.882 -0.414329 313.331 -0.417521C320.318 -0.419683 327.304 -0.42838 334.29 -0.453983C340.865 -0.478024 347.44 -0.481491 354.016 -0.471221C356.425 -0.470726 358.835 -0.47704 361.244 -0.490777C364.542 -0.508524 367.839 -0.501375 371.137 -0.488244C372.083 -0.499213 373.029 -0.510183 374.003 -0.521484C385.963 -0.407104 395.839 4.55453 404.688 12.3745C415.273 24.39 418.184 35.1667 418.375 50.9995C418.412 52.1751 418.45 53.3508 418.488 54.562C418.587 64.1985 418.587 64.1985 415.664 67.312C413 68.9995 413 68.9995 410 68.9995C410 75.2695 410 81.5395 410 87.9995C411.65 88.3295 413.3 88.6595 415 88.9995C417.43 91.2578 417.952 92.625 418.377 95.9243C418.378 97.0731 418.379 98.222 418.38 99.4056C418.385 100.05 418.39 100.694 418.394 101.357C418.406 103.524 418.397 105.69 418.388 107.857C418.392 109.423 418.397 110.989 418.404 112.554C418.419 116.864 418.414 121.174 418.407 125.484C418.402 130.13 418.415 134.776 418.425 139.421C418.442 148.528 418.443 157.634 418.438 166.741C418.434 174.145 418.435 181.55 418.44 188.954C418.441 190.007 418.442 191.06 418.443 192.145C418.444 194.285 418.446 196.424 418.447 198.564C418.461 218.644 418.456 238.724 418.444 258.804C418.434 277.163 418.447 295.522 418.471 313.881C418.495 332.733 418.505 351.585 418.498 370.438C418.495 381.021 418.497 391.604 418.515 402.188C418.529 411.203 418.53 420.218 418.513 429.233C418.504 433.83 418.502 438.427 418.517 443.024C418.531 447.239 418.526 451.454 418.507 455.669C418.503 457.187 418.506 458.706 418.517 460.224C418.613 475.193 415.663 487.328 405.625 498.687C397.574 505.78 388.738 512.107 377.603 512.134C376.724 512.138 375.845 512.143 374.939 512.147C373.978 512.147 373.017 512.147 372.026 512.147C371.001 512.15 369.977 512.154 368.921 512.158C365.476 512.169 362.032 512.173 358.588 512.177C356.122 512.183 353.657 512.189 351.191 512.196C343.785 512.216 336.378 512.226 328.971 512.235C325.48 512.24 321.99 512.245 318.499 512.25C306.89 512.267 295.28 512.282 283.671 512.289C280.66 512.291 277.648 512.293 274.636 512.295C273.514 512.295 273.514 512.295 272.368 512.296C260.251 512.304 248.134 512.33 236.017 512.362C223.568 512.395 211.118 512.413 198.669 512.417C191.682 512.419 184.696 512.427 177.71 512.453C171.135 512.477 164.56 512.48 157.984 512.47C155.575 512.47 153.165 512.476 150.756 512.49C147.458 512.508 144.161 512.5 140.863 512.487C139.444 512.504 139.444 512.504 137.997 512.521C126.037 512.406 116.161 507.444 107.313 499.625C98.0343 489.092 93.889 479.156 93.7617 465.121C93.7537 464.272 93.7456 463.422 93.7373 462.548C93.7235 460.758 93.7127 458.969 93.7048 457.179C93.6933 455.349 93.6728 453.519 93.6433 451.689C93.6008 449.041 93.5845 446.394 93.5742 443.746C93.5567 442.929 93.5392 442.112 93.5212 441.271C93.5353 437.585 93.6632 435.451 95.9016 432.453C98 431 98 431 100 431C100 424.4 100 417.8 100 411C98.68 410.34 97.36 409.68 96 409C93.6572 405.485 93.748 404.078 93.7427 399.919C93.7363 398.64 93.7298 397.36 93.7232 396.041C93.7261 394.613 93.7293 393.184 93.7326 391.756C93.7289 390.244 93.7243 388.733 93.7189 387.222C93.7066 383.058 93.7069 378.894 93.7092 374.73C93.7097 370.243 93.6986 365.756 93.6891 361.269C93.6725 352.472 93.667 343.675 93.6659 334.878C93.665 327.725 93.6609 320.571 93.6545 313.418C93.6369 293.137 93.6277 272.857 93.6292 252.576C93.6292 251.482 93.6293 250.388 93.6294 249.261C93.6295 248.165 93.6296 247.07 93.6297 245.941C93.6305 228.206 93.6114 210.471 93.5831 192.736C93.5544 174.525 93.5406 156.315 93.5423 138.105C93.543 127.881 93.5375 117.658 93.516 107.434C93.4977 98.7249 93.4934 90.0155 93.507 81.306C93.5135 76.8649 93.5137 72.424 93.4963 67.9829C93.4805 63.9101 93.4835 59.8376 93.5008 55.7648C93.5039 54.2983 93.5003 52.8318 93.4891 51.3653C93.3831 36.4941 96.4421 24.5519 106.375 13.312C114.426 6.21934 123.262 -0.108445 134.397 -0.134718Z" fill="white"/>
<path d="M186 77C191.029 79.4987 194.749 82.365 198.574 86.4871C199.084 87.0225 199.594 87.5579 200.12 88.1096C201.218 89.2628 202.314 90.4191 203.406 91.5781C205.747 94.0525 208.118 96.4972 210.487 98.9441C214.886 103.487 219.272 108.039 223.604 112.646C226.63 115.863 229.696 119.038 232.79 122.191C233.952 123.39 235.099 124.603 236.231 125.831C242.134 132.223 247.496 137.108 256.452 138.032C263.093 138.236 267.324 136.231 272.191 131.821C274.616 129.45 276.91 126.975 279.207 124.48C280.469 123.179 281.736 121.882 283.007 120.589C286.319 117.197 289.575 113.755 292.821 110.299C296.783 106.099 300.808 101.961 304.825 97.8145C307.946 94.5898 311.057 91.3569 314.14 88.0953C314.707 87.4986 315.274 86.9019 315.858 86.2872C316.913 85.1759 317.964 84.0607 319.01 82.9407C322.651 79.1191 325.06 77.2196 330.313 76.625C338.504 77.458 343.673 83.205 349.188 88.8125C350.235 89.8421 350.235 89.8421 351.303 90.8926C356.015 95.632 360.387 100.248 361.5 107.062C360.284 114.204 354.113 119.153 349.172 124.023C348.423 124.77 347.674 125.516 346.902 126.285C344.523 128.653 342.137 131.014 339.75 133.375C338.13 134.985 336.51 136.596 334.891 138.207C330.932 142.143 326.968 146.074 323 150C324.816 150.022 324.816 150.022 326.668 150.044C331.175 150.102 335.681 150.18 340.188 150.262C342.135 150.296 344.083 150.324 346.03 150.346C348.836 150.38 351.64 150.432 354.445 150.488C355.311 150.495 356.177 150.501 357.069 150.508C363.023 150.651 367.459 151.471 371.857 155.849C375.795 163.262 372.531 175.284 371.438 183.25C371.178 185.199 371.178 185.199 370.914 187.187C368.936 201.939 366.745 216.663 364.579 231.389C362.59 244.909 360.663 258.435 358.824 271.977C358.69 272.947 358.557 273.918 358.419 274.917C358.111 277.181 357.816 279.446 357.526 281.711C357.362 282.956 357.197 284.202 357.027 285.484C356.809 287.185 356.809 287.185 356.586 288.921C355.604 294.08 353.683 298.148 349.282 301.186C344.115 303.875 339.902 304.592 334.117 304.531C332.89 304.537 332.89 304.537 331.639 304.543C329.923 304.546 328.207 304.538 326.491 304.521C323.874 304.5 321.261 304.521 318.645 304.547C316.969 304.544 315.293 304.539 313.617 304.531C312.842 304.539 312.067 304.547 311.268 304.556C306.089 304.467 303.111 303.416 299 300C297.758 297.711 297.758 297.711 297.125 295.375C296.901 294.599 296.676 293.823 296.445 293.023C296 291 296 291 296 289C269.6 289 243.2 289 216 289C215.34 291.97 214.68 294.94 214 298C211.4 301.2 209.904 302.699 206 304C203.205 304.133 200.437 304.212 197.641 304.238C196.818 304.246 195.995 304.254 195.148 304.263C193.406 304.277 191.665 304.287 189.923 304.295C188.148 304.307 186.373 304.327 184.599 304.357C182.029 304.4 179.461 304.416 176.891 304.426C176.105 304.443 175.319 304.461 174.51 304.479C168.873 304.457 165.631 303.254 161 300C155.59 294.539 154.804 287.309 153.875 280C153.716 278.868 153.557 277.736 153.393 276.57C152.906 273.049 152.448 269.526 152 266C151.858 264.892 151.716 263.783 151.57 262.642C151.039 258.457 150.513 254.271 150.01 250.083C149.413 245.125 148.733 240.223 147.813 235.312C146.789 229.36 145.816 222.961 147 217C149.801 214.157 151.028 213.02 155.063 212.938C158.831 214.301 159.843 215.63 162 219C162.741 221.791 163.01 224.565 163.25 227.438C163.327 228.175 163.405 228.913 163.484 229.674C163.899 233.836 164 237.787 164 242C224.72 242 285.44 242 348 242C348.33 237.71 348.66 233.42 349 229C349.249 226.822 349.519 224.646 349.832 222.477C349.989 221.368 350.146 220.259 350.307 219.117C350.557 217.388 350.557 217.388 350.813 215.625C351.96 207.531 353.087 199.438 354.117 191.328C354.208 190.618 354.298 189.908 354.391 189.176C354.744 186.391 355.097 183.605 355.443 180.819C355.682 178.897 355.925 176.976 356.168 175.055C356.305 173.956 356.442 172.858 356.583 171.726C357 169 357 169 358 166C350.832 165.812 343.668 165.728 336.497 165.713C334.064 165.696 331.63 165.656 329.198 165.592C313.304 164.71 313.304 164.71 299.615 171.486C295.069 176.299 291.901 181.079 290.578 187.66C288.686 195.317 282.284 201.606 276 206C272.038 208.174 268.564 210 264 210C264.046 211.025 264.093 212.05 264.141 213.105C264.178 214.466 264.215 215.827 264.25 217.188C264.284 217.861 264.317 218.535 264.352 219.229C264.422 222.826 264.105 224.83 262.199 227.914C260 230 260 230 256.563 231.188C253 231 253 231 250.063 229C246.289 223.845 247.652 216.077 248 210C246.666 209.83 246.666 209.83 245.305 209.656C236.288 207.866 229.122 201.392 224 194C221.824 189.649 220.361 185.123 218.875 180.5C215.861 174.873 213.015 169.774 207 167C198.154 165.138 188.862 165.738 179.875 165.875C177.367 165.877 174.859 165.874 172.352 165.867C166.233 165.859 160.118 165.908 154 166C154.325 167.628 154.325 167.628 154.656 169.289C154.938 170.734 155.219 172.18 155.5 173.625C155.643 174.338 155.786 175.051 155.934 175.785C157.94 186.199 157.94 186.199 155.5 190.875C152.479 193.443 150.837 193.619 147 193.762C143.607 192.469 142.654 190.135 141 187C140.403 184.203 139.993 181.696 139.75 178.875C139.677 178.131 139.604 177.387 139.529 176.62C139.326 174.415 139.156 172.209 139 170C138.915 168.811 138.83 167.623 138.742 166.398C138.572 161.818 138.483 158.923 140.75 154.875C144.215 151.987 146.882 150.761 151.401 150.681C152.262 150.661 153.123 150.641 154.009 150.621C154.929 150.609 155.849 150.598 156.797 150.586C157.746 150.567 158.694 150.547 159.672 150.527C162.698 150.468 165.724 150.421 168.75 150.375C170.803 150.337 172.857 150.298 174.91 150.258C179.94 150.162 184.97 150.078 190 150C189.566 149.573 189.132 149.145 188.685 148.705C184.166 144.253 179.658 139.79 175.156 135.321C173.475 133.655 171.791 131.991 170.105 130.331C167.68 127.942 165.265 125.545 162.852 123.145C162.096 122.405 161.341 121.665 160.563 120.903C159.862 120.202 159.162 119.502 158.44 118.781C157.823 118.17 157.205 117.559 156.569 116.93C153.598 113.276 152.224 108.948 152.383 104.219C153.805 99.1062 158.325 95.6095 162 92C163.12 90.85 164.237 89.6975 165.352 88.543C166.504 87.3608 167.658 86.1798 168.813 85C169.639 84.1537 169.639 84.1537 170.481 83.2903C175.593 78.1723 178.666 76.2541 186 77Z" fill="#053553"/>
<path d="M281 320.001C282.057 320.363 283.114 320.725 284.203 321.098C302.645 328.073 316.091 342.813 324.688 360.188C332.582 378.539 333.52 398.233 326.125 416.938C324.082 421.939 321.884 427.116 318 431.001C316.481 431.072 314.958 431.084 313.438 431.063C312.198 431.049 312.198 431.049 310.934 431.036C309.976 431.018 309.976 431.018 309 431.001C308.763 431.563 308.526 432.125 308.281 432.704C306.711 435.519 304.785 437.48 302.5 439.751C301.309 440.949 301.309 440.949 300.094 442.172C298 444.001 298 444.001 296 444.001C296.248 445.052 296.495 446.104 296.75 447.188C297 451.001 297 451.001 295.75 453.626C291.597 457.213 287.096 459.051 282 461.001C280.521 461.596 280.521 461.596 279.012 462.204C263.799 467.479 244.862 467.239 230 461.001C229.05 460.606 229.05 460.606 228.082 460.203C209.478 452.269 196.443 439.703 187.563 421.438C187.232 420.766 186.902 420.095 186.561 419.402C179.737 404.539 179.157 383.164 184.063 367.688C184.98 365.433 185.958 363.201 187 361.001C187.496 359.889 187.993 358.778 188.504 357.633C192.686 349.068 198.288 342.625 205 336.001C205.681 335.321 206.361 334.642 207.063 333.942C226.742 315.534 256.071 311.241 281 320.001Z" fill="white"/>
<path d="M415 88.9996C417.348 91.2804 417.956 92.6603 418.377 95.9244C418.378 97.0732 418.379 98.222 418.38 99.4057C418.385 100.05 418.39 100.694 418.394 101.357C418.406 103.524 418.397 105.69 418.388 107.857C418.392 109.423 418.397 110.989 418.404 112.555C418.418 116.864 418.414 121.174 418.407 125.484C418.402 130.13 418.415 134.776 418.425 139.421C418.442 148.528 418.443 157.634 418.438 166.741C418.434 174.145 418.435 181.55 418.44 188.954C418.441 190.007 418.442 191.06 418.443 192.146C418.444 194.285 418.446 196.424 418.447 198.564C418.461 218.644 418.456 238.724 418.444 258.804C418.434 277.163 418.447 295.522 418.471 313.881C418.495 332.733 418.505 351.585 418.498 370.438C418.495 381.021 418.497 391.604 418.515 402.188C418.529 411.203 418.53 420.218 418.513 429.233C418.504 433.83 418.502 438.427 418.517 443.024C418.531 447.239 418.526 451.454 418.507 455.669C418.503 457.187 418.506 458.706 418.517 460.224C418.612 475.194 415.663 487.328 405.625 498.687C397.574 505.78 388.738 512.108 377.603 512.134C376.284 512.14 376.284 512.14 374.939 512.147C373.978 512.147 373.017 512.147 372.026 512.147C371.001 512.15 369.977 512.154 368.921 512.158C365.476 512.169 362.032 512.173 358.588 512.177C356.122 512.183 353.657 512.189 351.191 512.196C343.785 512.216 336.378 512.226 328.971 512.235C325.48 512.24 321.99 512.245 318.499 512.25C306.89 512.267 295.28 512.282 283.671 512.289C280.66 512.291 277.648 512.293 274.636 512.295C273.514 512.295 273.514 512.295 272.368 512.296C260.251 512.304 248.134 512.33 236.017 512.362C223.568 512.395 211.118 512.413 198.669 512.417C191.682 512.419 184.696 512.427 177.71 512.453C171.135 512.477 164.56 512.481 157.984 512.47C155.575 512.47 153.165 512.476 150.756 512.49C147.458 512.508 144.161 512.5 140.863 512.487C139.444 512.504 139.444 512.504 137.997 512.521C126.037 512.406 116.161 507.445 107.312 499.625C98.0342 489.093 93.8889 479.156 93.7617 465.121C93.7536 464.272 93.7455 463.422 93.7372 462.548C93.7234 460.758 93.7127 458.969 93.7048 457.18C93.6932 455.349 93.6727 453.519 93.6433 451.689C93.6007 449.041 93.5845 446.394 93.5742 443.746C93.5567 442.929 93.5392 442.112 93.5211 441.271C93.535 437.646 93.6496 435.473 95.8391 432.515C98 431 98 431 101 430C107.716 432.431 107.716 432.431 109 435C109.096 437.545 109.137 440.067 109.141 442.613C109.159 444.188 109.179 445.763 109.199 447.337C109.228 449.808 109.25 452.277 109.25 454.748C109.268 466.85 109.757 478.551 118.312 488.062C123.555 492.685 130.112 496.112 137.177 496.139C138.033 496.145 138.888 496.151 139.77 496.157C140.71 496.158 141.65 496.159 142.619 496.16C143.618 496.165 144.616 496.17 145.645 496.176C149.008 496.191 152.37 496.2 155.732 496.208C158.137 496.218 160.541 496.228 162.946 496.238C170.175 496.267 177.404 496.286 184.633 496.303C186.676 496.308 188.719 496.313 190.762 496.318C203.458 496.349 216.153 496.376 228.848 496.393C231.788 496.397 234.729 496.401 237.67 496.405C238.4 496.406 239.131 496.407 239.884 496.408C251.71 496.425 263.535 496.466 275.361 496.517C287.511 496.568 299.661 496.598 311.811 496.605C318.629 496.609 325.447 496.624 332.265 496.665C338.684 496.703 345.103 496.71 351.523 496.697C353.874 496.697 356.225 496.707 358.576 496.728C377.358 497.095 377.358 497.095 393.233 487.946C398.796 482.219 401.375 476.158 401.374 468.202C401.378 467.552 401.381 466.902 401.386 466.233C401.395 464.064 401.383 461.896 401.372 459.727C401.374 458.153 401.378 456.579 401.383 455.005C401.394 450.687 401.385 446.368 401.374 442.05C401.365 437.39 401.374 432.73 401.38 428.07C401.389 419.997 401.388 411.925 401.38 403.853C401.369 392.176 401.378 380.499 401.393 368.822C401.416 349.87 401.43 330.918 401.434 311.965C401.434 310.831 401.434 309.697 401.435 308.529C401.437 295.87 401.438 283.211 401.437 270.552C401.436 265.959 401.436 261.366 401.436 256.773C401.436 255.073 401.436 255.073 401.436 253.339C401.435 234.455 401.45 215.571 401.477 196.687C401.492 185.036 401.495 173.385 401.479 161.734C401.47 153.756 401.475 145.778 401.491 137.8C401.499 133.194 401.501 128.588 401.486 123.981C401.472 119.767 401.477 115.554 401.496 111.339C401.499 109.813 401.496 108.286 401.486 106.759C401.472 104.687 401.483 102.617 401.501 100.545C401.5 99.3938 401.5 98.2421 401.5 97.0555C402.108 93.3359 403.398 91.6754 406 88.9996C409.183 87.408 411.613 88.2272 415 88.9996Z" fill="#053553"/>
<path d="M154 166C161.327 165.694 168.653 165.485 175.985 165.341C178.474 165.281 180.963 165.2 183.451 165.095C206.379 164.158 206.379 164.158 213.035 170.045C217.778 175.089 220.399 180.475 222.16 187.176C224.618 195.441 230.749 201.927 238.082 206.219C241.351 207.918 244.396 209.193 248 210C248.026 211.025 248.052 212.05 248.078 213.106C248.134 214.467 248.192 215.827 248.25 217.188C248.264 217.861 248.278 218.535 248.293 219.229C248.527 224.02 249.462 226.723 253 230C256.659 230.065 258.949 229.995 261.672 227.418C263.488 224.112 263.566 220.938 263.688 217.25C263.722 216.553 263.756 215.856 263.791 215.137C263.873 213.425 263.938 211.713 264 210C264.762 209.732 265.524 209.464 266.309 209.188C276.579 205.29 283.959 200.175 289.055 190.27C289.962 188.092 290.472 186.044 291 183.75C293.581 176.283 298.954 169.64 306 166C314.719 163.884 323.932 164.775 332.812 165.188C335.258 165.253 337.704 165.313 340.15 165.366C346.104 165.508 352.051 165.725 358 166C355.223 192.165 355.223 192.165 353.562 202.313C351.435 215.501 349.766 228.759 348 242C287.28 242 226.56 242 164 242C163.01 234.41 162.02 226.82 161 219C156.745 214 156.745 214 153 213C151.676 206.57 150.752 200.571 151 194C149.68 193.67 148.36 193.34 147 193C148.114 192.732 149.227 192.464 150.375 192.188C154.218 191.342 154.218 191.342 156 188C156.06 185.357 156.06 185.357 155.688 182.438C155.588 181.467 155.489 180.497 155.387 179.497C155.259 178.343 155.131 177.189 155 176C154.824 174.261 154.649 172.522 154.476 170.782C154.387 169.885 154.297 168.989 154.205 168.065C154.104 167.043 154.104 167.043 154 166Z" fill="white"/>
<path d="M134.397 -0.134718C135.716 -0.141405 135.716 -0.141405 137.061 -0.148227C138.022 -0.148042 138.983 -0.147858 139.974 -0.147668C141.511 -0.153183 141.511 -0.153183 143.079 -0.15881C146.524 -0.16985 149.968 -0.173691 153.412 -0.177499C155.878 -0.183763 158.343 -0.19041 160.809 -0.197412C168.216 -0.216641 175.622 -0.227241 183.029 -0.23614C186.52 -0.240526 190.01 -0.245892 193.501 -0.251128C205.11 -0.26814 216.72 -0.282633 228.329 -0.289877C231.34 -0.291787 234.352 -0.293707 237.364 -0.295663C238.486 -0.296389 238.486 -0.296389 239.632 -0.297129C251.749 -0.305424 263.866 -0.330753 275.983 -0.363244C288.432 -0.396353 300.882 -0.414329 313.331 -0.417521C320.318 -0.419683 327.304 -0.42838 334.29 -0.453983C340.865 -0.478024 347.44 -0.481491 354.016 -0.471221C356.425 -0.470726 358.835 -0.47704 361.244 -0.490777C364.542 -0.508524 367.839 -0.501375 371.137 -0.488244C372.083 -0.499213 373.029 -0.510183 374.003 -0.521484C385.963 -0.407104 395.839 4.55453 404.688 12.3745C415.273 24.39 418.184 35.1667 418.375 50.9995C418.412 52.1751 418.45 53.3508 418.488 54.562C418.587 64.199 418.587 64.199 415.699 67.3042C413 68.9995 413 68.9995 409.438 69.1245C405.133 67.7159 404.224 66.9538 402 62.9995C401.343 57.6491 401.542 52.258 401.6 46.8765C401.515 38.2361 400.023 31.4073 394.069 24.8835C386.694 17.7509 378.704 15.3945 368.639 15.4916C367.633 15.4853 366.627 15.4791 365.591 15.4727C362.24 15.4568 358.89 15.4693 355.539 15.4819C353.129 15.4765 350.718 15.4694 348.308 15.4607C342.453 15.4444 336.598 15.4467 330.742 15.4583C325.982 15.4674 321.221 15.4686 316.46 15.4642C315.441 15.4633 315.441 15.4633 314.402 15.4624C313.023 15.4611 311.644 15.4598 310.264 15.4585C297.345 15.4471 284.426 15.4602 271.506 15.4817C260.433 15.4996 249.36 15.4965 238.287 15.478C225.412 15.4566 212.538 15.4482 199.663 15.4605C198.289 15.4617 196.914 15.463 195.54 15.4642C194.526 15.4652 194.526 15.4652 193.492 15.4661C188.739 15.4696 183.987 15.4638 179.235 15.4543C172.832 15.4419 166.43 15.4508 160.028 15.4739C157.681 15.4792 155.333 15.4777 152.986 15.4688C149.777 15.4579 146.57 15.4717 143.361 15.4916C141.974 15.4782 141.974 15.4782 140.558 15.4645C131.343 15.5751 124.417 18.9019 117.723 25.144C111.896 31.4196 109.749 39.1121 109.752 47.5656C109.748 48.852 109.744 50.1384 109.739 51.4638C109.744 52.8789 109.75 54.294 109.755 55.7091C109.754 57.222 109.751 58.7349 109.748 60.2477C109.742 64.3972 109.749 68.5466 109.757 72.6961C109.763 77.1739 109.758 81.6517 109.754 86.1296C109.749 93.8861 109.751 101.643 109.756 109.399C109.764 121.654 109.753 133.909 109.739 146.164C109.734 150.357 109.73 154.549 109.726 158.742C109.724 159.79 109.723 160.838 109.722 161.917C109.71 173.838 109.703 185.759 109.697 197.68C109.696 198.769 109.695 199.859 109.695 200.982C109.686 218.658 109.69 236.334 109.696 254.011C109.701 272.154 109.688 290.298 109.658 308.442C109.641 319.637 109.639 330.831 109.658 342.026C109.669 349.691 109.663 357.356 109.642 365.02C109.631 369.446 109.628 373.872 109.647 378.298C109.663 382.346 109.657 386.393 109.633 390.442C109.628 391.909 109.632 393.377 109.645 394.844C109.661 396.833 109.644 398.822 109.625 400.811C109.625 401.917 109.625 403.024 109.625 404.164C109 407 109 407 106.652 409.351C103.393 411.377 101.768 411.721 98.0001 411C95.3771 408.392 94.1201 406.709 93.4987 403.034C93.4977 401.37 93.4977 401.37 93.4967 399.673C93.4863 398.39 93.4758 397.106 93.4651 395.783C93.4737 394.36 93.4828 392.938 93.4921 391.515C93.4875 390.002 93.4812 388.489 93.4732 386.976C93.4565 382.817 93.4648 378.657 93.4772 374.498C93.4862 370.012 93.4722 365.527 93.4612 361.041C93.4434 352.251 93.4473 343.461 93.4589 334.671C93.4679 327.523 93.4692 320.376 93.4648 313.228C93.4642 312.211 93.4636 311.195 93.4629 310.147C93.4617 308.081 93.4604 306.015 93.459 303.949C93.4476 284.564 93.4608 265.179 93.4822 245.794C93.5001 229.173 93.497 212.553 93.4786 195.932C93.4571 176.629 93.4488 157.326 93.461 138.023C93.4623 135.963 93.4636 133.902 93.4648 131.841C93.4654 130.827 93.466 129.813 93.4667 128.769C93.4701 121.637 93.4643 114.505 93.4549 107.373C93.4436 98.6711 93.4468 89.9691 93.468 81.267C93.4785 76.8299 93.4827 72.3931 93.4694 67.956C93.4574 63.8869 93.4642 59.8183 93.4853 55.7492C93.4898 54.2841 93.4876 52.819 93.4778 51.354C93.3863 36.4901 96.4467 24.5467 106.375 13.312C114.426 6.21934 123.262 -0.108445 134.397 -0.134718Z" fill="#053553"/>
<path d="M281 320.001C282.057 320.363 283.114 320.725 284.203 321.098C302.645 328.073 316.091 342.813 324.688 360.188C332.582 378.539 333.52 398.233 326.125 416.938C324.082 421.939 321.884 427.116 318 431.001C314.142 431.364 311.84 431.561 308.563 429.376C306.539 426.3 306.722 424.647 307 421.001C308.023 418.036 308.023 418.036 309.375 415.063C315.501 401.468 316.769 384.492 311.938 370.188C305.254 354.737 295.093 343.295 279.547 336.489C264.41 330.567 248.24 329.395 233 336.001C231.608 336.602 231.608 336.602 230.188 337.215C217.402 343.481 208.377 353.415 202 366.001C201.546 366.863 201.093 367.725 200.625 368.614C195.303 381.088 195.727 399.341 200.563 411.938C206.544 426.061 217.13 438.269 231.32 444.446C239.342 447.586 245.634 449.181 254.188 449.188C255 449.2 255.813 449.213 256.65 449.225C264.739 449.244 271.746 447.806 279.125 444.438C287.621 440.822 287.621 440.822 292 441.001C295 443.001 295 443.001 297 446.001C297.125 449.563 297.125 449.563 296 453.001C292.728 456.03 289.485 457.885 285.375 459.563C283.964 460.153 283.964 460.153 282.523 460.754C273.636 463.898 265.639 465.536 256.188 465.438C255.134 465.429 254.081 465.42 252.996 465.411C244.697 465.227 237.717 464.24 230 461.001C229.05 460.606 229.05 460.606 228.082 460.203C209.478 452.269 196.443 439.703 187.563 421.438C187.232 420.766 186.902 420.095 186.561 419.402C179.737 404.539 179.157 383.164 184.063 367.688C184.98 365.433 185.958 363.201 187 361.001C187.496 359.889 187.993 358.778 188.504 357.633C192.686 349.068 198.288 342.625 205 336.001C205.681 335.321 206.361 334.642 207.063 333.942C226.742 315.534 256.071 311.241 281 320.001Z" fill="#053553"/>
<path d="M167 257C225.74 257 284.48 257 345 257C345 266.009 345 266.009 344.16 270.777C343.984 271.785 343.808 272.792 343.627 273.83C343.441 274.856 343.254 275.881 343.062 276.938C342.88 277.99 342.698 279.043 342.51 280.127C341.136 287.864 341.136 287.864 340 289C337.854 289.088 335.706 289.107 333.559 289.098C332.253 289.094 330.948 289.091 329.604 289.088C328.215 289.08 326.826 289.071 325.438 289.062C324.045 289.057 322.652 289.053 321.26 289.049C317.84 289.037 314.42 289.021 311 289C310.294 287.267 309.588 285.533 308.882 283.8C306.393 278.722 302.047 276.096 297 274C294.234 273.711 291.696 273.569 288.934 273.58C287.755 273.567 287.755 273.567 286.552 273.554C283.965 273.531 281.38 273.53 278.793 273.531C276.985 273.524 275.176 273.516 273.368 273.508C269.581 273.495 265.794 273.493 262.008 273.499C257.172 273.505 252.338 273.474 247.503 273.434C243.768 273.408 240.034 273.405 236.299 273.409C234.518 273.407 232.736 273.398 230.954 273.38C217.573 272.999 217.573 272.999 206 279C203.16 282.479 202.092 284.634 201 289C191.43 289 181.86 289 172 289C170.036 284.089 169.163 279.855 168.375 274.688C168.241 273.871 168.107 273.054 167.969 272.213C167.842 271.404 167.716 270.595 167.586 269.762C167.473 269.039 167.36 268.317 167.244 267.573C166.911 264.063 167 260.525 167 257Z" fill="white"/>
<path d="M321 166C333.21 166 345.42 166 358 166C355.122 193.003 355.122 193.003 353.203 204.461C351.142 216.924 349.643 229.479 348 242C335.79 242 323.58 242 311 242C311.33 237.38 311.66 232.76 312 228C311.67 227.34 311.34 226.68 311 226C311.049 216.453 312.323 207.078 313.913 197.684C314.751 192.728 315.378 187.841 315.594 182.812C316 181 316 181 319 178C319.66 174.04 320.32 170.08 321 166Z" fill="white"/>
<path d="M300 351C308.443 358.45 314.208 369.421 315.244 380.638C316.066 394.493 315.337 406.727 308.855 419.203C307.565 421.913 307.692 424.045 308 427C309.379 429.343 309.379 429.343 311 431C310.34 431 309.68 431 309 431C308.76 431.561 308.52 432.121 308.273 432.699C306.724 435.498 304.854 437.52 302.625 439.812C301.469 441.029 301.469 441.029 300.289 442.27C298 444 298 444 295.902 443.816C295.275 443.547 294.647 443.278 294 443C287.779 441.223 284.187 442.906 278.648 445.676C267.103 451.448 250.79 452.291 238.438 448.312C236.608 447.584 234.793 446.814 233 446C232.108 445.615 231.216 445.229 230.297 444.832C224.74 442.261 220.467 439.176 216 435C218 434 218 434 221.562 434.938C238.181 438.805 254.776 434.966 269.641 427.113C284.94 417.489 296.559 401.913 300.654 384.203C301.34 379.839 301.245 375.469 301.188 371.062C301.187 370.125 301.186 369.187 301.186 368.221C301.149 362.409 300.739 356.764 300 351Z" fill="white"/>
<path d="M282.875 358.5C286 359 286 359 288.937 361.062C291 364 291 364 290.996 367.156C289.696 372.172 287.255 375.378 284.125 379.438C282.929 381.038 281.735 382.639 280.543 384.242C279.645 385.441 279.645 385.441 278.728 386.663C276.209 390.07 273.817 393.557 271.437 397.062C267.466 402.874 263.472 408.67 259.437 414.438C258.924 415.178 258.411 415.919 257.883 416.682C257.404 417.363 256.926 418.044 256.434 418.746C256.011 419.351 255.589 419.956 255.154 420.58C253.191 422.995 251.808 423.021 248.684 423.367C244.015 422.902 243.021 421.679 240.062 418.125C239.638 417.625 239.214 417.126 238.778 416.611C237.498 415.091 236.248 413.546 235 412C234.306 411.163 233.613 410.327 232.898 409.465C230.892 407.006 228.945 404.507 227 402C226.176 400.983 225.353 399.966 224.504 398.918C223.668 397.863 222.834 396.807 222 395.75C221.237 394.796 220.474 393.842 219.687 392.859C217.742 389.564 217.531 387.764 218 384C220.089 380.825 221.525 380.13 225.187 379.125C231.379 380.546 234.152 385.182 238 390C238.849 391.004 239.699 392.008 240.574 393.043C247 400.679 247 400.679 247 403C249.917 400.226 252.263 397.387 254.539 394.07C255.197 393.116 255.856 392.162 256.534 391.179C257.224 390.171 257.914 389.163 258.625 388.125C260.058 386.049 261.492 383.974 262.926 381.898C263.621 380.89 264.317 379.882 265.034 378.843C267.603 375.128 270.195 371.431 272.812 367.75C273.936 366.164 273.936 366.164 275.082 364.547C279.148 359.148 279.148 359.148 282.875 358.5Z" fill="#053553"/>
<path d="M266.313 154C272.063 157.205 275.918 161.754 278 168C278.671 175.421 278.638 181.906 274 188C268.637 193.817 263.531 196.026 255.625 196.375C249.314 196.229 244.866 194.694 240.246 190.351C234.789 184.329 233.511 179.068 233.699 171C234.264 165.369 236.018 161.839 240.164 157.992C248.22 151.511 256.537 149.586 266.313 154Z" fill="white"/>
<path d="M330 93C337.875 99.75 337.875 99.75 340.938 102.875C341.817 103.768 341.817 103.768 342.715 104.68C343.351 105.333 343.351 105.333 344 106C342.431 109.77 340.083 112.17 337.215 115.044C336.488 115.776 336.488 115.776 335.746 116.524C334.148 118.13 332.543 119.729 330.938 121.328C329.824 122.443 328.71 123.558 327.597 124.674C325.267 127.007 322.933 129.337 320.597 131.664C317.597 134.652 314.606 137.65 311.618 140.65C309.323 142.952 307.023 145.25 304.721 147.547C303.616 148.65 302.512 149.756 301.41 150.862C299.873 152.404 298.33 153.94 296.785 155.474C295.907 156.35 295.03 157.226 294.125 158.129C292 160 292 160 290 160C288.668 158.023 288.668 158.023 287.188 155.375C284.743 151.01 282.327 147.992 279 144C295.83 127.17 312.66 110.34 330 93Z" fill="white"/>
<path d="M182 93C188.124 98.065 193.707 103.578 199.309 109.211C200.285 110.189 201.261 111.167 202.238 112.145C204.787 114.697 207.332 117.253 209.877 119.809C212.483 122.425 215.092 125.039 217.701 127.652C222.804 132.765 227.903 137.882 233 143C231.463 146.188 229.713 148.792 227.5 151.562C225.556 154.005 223.733 156.4 222 159C218.258 157.44 215.891 155.133 213.048 152.275C212.569 151.797 212.091 151.318 211.598 150.826C210.024 149.251 208.457 147.668 206.891 146.086C205.798 144.99 204.705 143.894 203.612 142.799C200.74 139.92 197.875 137.035 195.011 134.148C192.085 131.202 189.154 128.261 186.223 125.32C180.476 119.552 174.736 113.778 169 108C170.837 103.996 173.491 101.28 176.625 98.25C177.141 97.7434 177.656 97.2368 178.188 96.7148C179.454 95.472 180.726 94.2353 182 93Z" fill="white"/>
<path d="M167 257C225.74 257 284.48 257 345 257C345 266.009 345 266.009 344.16 270.777C343.984 271.785 343.808 272.792 343.627 273.83C343.441 274.856 343.254 275.881 343.062 276.938C342.88 277.99 342.698 279.043 342.51 280.127C341.136 287.864 341.136 287.864 340 289C337.854 289.088 335.706 289.107 333.559 289.098C332.253 289.094 330.948 289.091 329.604 289.088C328.215 289.08 326.826 289.071 325.438 289.062C324.045 289.057 322.652 289.053 321.26 289.049C317.84 289.037 314.42 289.021 311 289C310.284 287.275 309.568 285.549 308.852 283.824C307.932 281.735 307.932 281.735 306 279C305.941 277.055 305.941 277.055 306.207 274.875C306.345 273.692 306.345 273.692 306.486 272.484C306.648 271.255 306.648 271.255 306.812 270C306.909 269.18 307.005 268.36 307.104 267.516C307.51 264.173 307.931 261.207 309 258C262.14 258 215.28 258 167 258C167 257.67 167 257.34 167 257Z" fill="white"/>
<path d="M220.515 29.4657C221.62 29.4499 222.725 29.434 223.863 29.4177C225.052 29.4227 226.24 29.4276 227.465 29.4328C229.303 29.4235 229.303 29.4235 231.178 29.414C233.77 29.4069 236.361 29.4101 238.953 29.4227C242.919 29.4366 246.883 29.4026 250.85 29.3644C253.367 29.3634 255.885 29.3653 258.402 29.3703C259.589 29.357 260.775 29.3437 261.998 29.3301C271.156 29.4337 271.156 29.4337 274.283 32.3119C276 34.9992 276 34.9992 276.062 38.6242C274.879 42.3843 274.318 43.0858 271 44.9992C268.42 45.3868 268.42 45.3868 265.469 45.4032C263.807 45.4222 263.807 45.4222 262.111 45.4417C260.92 45.4387 259.728 45.4358 258.5 45.4328C257.272 45.438 256.044 45.4432 254.779 45.4486C252.184 45.4551 249.588 45.4537 246.992 45.4452C243.015 45.4367 239.039 45.4655 235.062 45.4972C232.542 45.4988 230.021 45.4982 227.5 45.4953C225.712 45.5121 225.712 45.5121 223.889 45.5293C222.781 45.5199 221.673 45.5105 220.531 45.5009C219.557 45.5007 218.583 45.5005 217.58 45.5004C214.241 44.8518 213.055 43.6655 211 40.9992C210.5 37.4992 210.5 37.4992 211 33.9992C213.893 30.2502 215.844 29.4955 220.515 29.4657Z" fill="#053553"/>
<path d="M189.625 175.938C193.407 177.128 194.038 177.693 196 181C196.692 183.682 196.692 183.682 197.133 186.727C197.299 187.842 197.465 188.957 197.637 190.105C197.798 191.267 197.959 192.428 198.125 193.625C198.294 194.763 198.463 195.901 198.637 197.074C199.603 203.702 200.417 210.328 201 217C201.09 217.998 201.18 218.995 201.273 220.023C201.545 226.311 201.545 226.311 198.875 229.688C195.268 231.334 193.721 231.346 190 230C185.941 226.029 185.15 222.11 184.516 216.664C184.41 215.866 184.305 215.069 184.196 214.247C183.977 212.565 183.766 210.883 183.562 209.199C183.252 206.638 182.919 204.081 182.582 201.523C182.371 199.883 182.161 198.242 181.953 196.602C181.856 195.844 181.759 195.087 181.66 194.306C180.198 182.167 180.198 182.167 183.062 178C186 176 186 176 189.625 175.938Z" fill="#053553"/>
<path d="M324.625 176C327.958 176.987 328.99 177.32 331 180C332.512 188.536 330.238 197.779 328.781 206.215C328.26 209.266 327.835 212.298 327.531 215.379C327.426 216.394 327.426 216.394 327.318 217.43C327.137 219.252 326.978 221.075 326.82 222.898C325.775 226.85 324.185 228.494 321 231C317.272 231.064 315.047 230.99 312.281 228.375C310.482 225.04 310.827 222.699 311.125 218.938C311.179 218.246 311.232 217.554 311.287 216.841C311.842 210.408 312.832 204.042 313.917 197.679C314.633 193.479 315.159 189.387 315.375 185.125C315.687 181.698 316.087 180.869 318.125 177.812C321 176 321 176 324.625 176Z" fill="#053553"/>
<path d="M298 31.0003C299.937 32.1253 299.937 32.1253 301 34.0003C301.5 37.4378 301.5 37.4378 301 41.0003C298.937 43.5003 298.937 43.5003 296 45.0003C292.197 45.0003 289.981 44.7972 287 42.3753C285.53 38.8845 286.016 36.6088 287 33.0003C290.2 29.0613 293.376 29.8234 298 31.0003Z" fill="#053553"/>
</g>
<defs>
<clipPath id="clip0_307_142">
<rect width="512" height="512" fill="white"/>
</clipPath>
</defs>
</svg>
