<svg width="144" height="58" viewBox="0 0 144 58" fill="none" xmlns="http://www.w3.org/2000/svg">
<g clip-path="url(#clip0_302_65)">
<path d="M137.451 21.7856C136.672 22.864 135.534 23.3433 134.036 23.3433C132.538 23.3433 131.399 22.8041 130.621 21.7856C129.842 20.7071 129.422 19.2092 129.422 17.2919C129.422 15.3747 129.842 13.8169 130.621 12.7983C131.399 11.7198 132.598 11.2405 134.036 11.2405C135.534 11.2405 136.672 11.7798 137.451 12.7983C138.23 13.8768 138.649 15.3747 138.649 17.2919C138.649 19.2691 138.29 20.767 137.451 21.7856ZM141.525 9.9823C139.907 7.94519 137.391 6.92664 134.036 6.92664C130.68 6.92664 128.224 7.94519 126.546 9.9823C124.929 12.0194 124.09 14.4759 124.09 17.2919C124.09 20.1679 124.929 22.5645 126.546 24.6016C128.164 26.6387 130.68 27.6572 134.036 27.6572C137.391 27.6572 139.847 26.6387 141.525 24.6016C143.143 22.5645 143.982 20.1079 143.982 17.2919C143.982 14.4759 143.203 12.0793 141.525 9.9823Z" fill="white"/>
<path d="M96.9962 19.3822C96.9363 21.1198 96.457 22.2582 95.5583 22.9172C94.5996 23.5763 93.5811 23.8759 92.5026 23.8759C91.7836 23.8759 91.1845 23.6961 90.7052 23.2767C90.2258 22.9172 89.9862 22.2582 89.9862 21.3594C89.9862 20.4008 90.4056 19.6818 91.1845 19.2025C91.6638 18.9029 92.4427 18.7232 93.5212 18.4835L94.6596 18.2438C95.2587 18.124 95.6781 18.0042 96.0376 17.8844C96.3971 17.7645 96.6967 17.5848 96.9962 17.405V19.3822ZM99.5726 8.29796C97.895 7.45915 95.9777 7.03974 93.8807 7.03974C90.5853 7.03974 88.2487 7.87855 86.9305 9.61609C86.0917 10.6946 85.6124 12.1325 85.4926 13.8101H90.4056C90.5254 13.0312 90.7651 12.4321 91.1246 12.0127C91.6039 11.4135 92.5026 11.114 93.7009 11.114C94.7794 11.114 95.6182 11.2338 96.1574 11.5933C96.6967 11.8929 96.9962 12.4321 96.9962 13.2709C96.9962 13.93 96.6368 14.4093 95.9178 14.7089C95.4984 14.8886 94.8393 15.0084 93.8807 15.1283L92.1431 15.3679C90.1659 15.6076 88.6681 16.027 87.6495 16.6261C85.7921 17.7046 84.8335 19.4421 84.8335 21.8387C84.8335 23.6961 85.4326 25.1341 86.571 26.1526C87.7094 27.1712 89.2073 27.5906 90.9448 27.6505C102.089 28.1298 101.969 21.7788 102.089 20.4607V13.1511C102.089 10.7545 101.25 9.13677 99.5726 8.29796Z" fill="white"/>
<path d="M74.2001 11.4071C75.4583 11.4071 76.4169 11.8265 77.0161 12.6054C77.4355 13.2045 77.6752 13.8636 77.795 14.5826H83.3072C83.0076 11.8265 82.0489 9.84929 80.3713 8.77082C78.7536 7.69235 76.6566 7.15311 74.0803 7.15311C71.0246 7.15311 68.6879 8.05184 66.9504 9.9092C65.2128 11.7666 64.374 14.3429 64.374 17.6982C64.374 20.634 65.1529 23.0905 66.7107 24.888C68.2685 26.7453 70.725 27.644 74.0203 27.644C77.3157 27.644 79.8321 26.5057 81.5097 24.2888C82.5882 22.9108 83.1274 21.4728 83.3072 19.915H77.8549C77.7351 20.9336 77.4355 21.7724 76.8963 22.4314C76.357 23.0905 75.4583 23.3901 74.2001 23.3901C72.4026 23.3901 71.2043 22.6112 70.6052 20.9336C70.2457 20.0948 70.0659 18.8965 70.0659 17.5184C70.0659 16.0205 70.2457 14.8222 70.6052 13.9235C71.1444 12.2459 72.4026 11.4071 74.2001 11.4071Z" fill="white"/>
<path d="M62.8549 7.1C51.5908 7.1 52.2499 17.1058 52.2499 17.1058V27.2314H57.3427V17.705C57.3427 16.1472 57.5224 15.0088 57.9418 14.2299C58.6608 12.9118 60.0389 12.2527 62.076 12.2527H62.6751C62.9148 12.2527 63.2144 12.3126 63.5139 12.3126V7.1H62.8549Z" fill="white"/>
<path d="M37.1612 12.4039C37.8801 11.685 38.8987 11.2656 40.2168 11.2656C41.4151 11.2656 42.4337 11.6251 43.2126 12.344C43.9915 13.063 44.4708 14.0816 44.5906 15.3997H35.843C36.0228 14.1415 36.4422 13.1229 37.1612 12.4039ZM44.0514 21.9304C43.8117 22.23 43.632 22.5296 43.3324 22.7093C42.6134 23.3085 41.6548 23.4882 40.4565 23.4882C39.378 23.4882 38.4793 23.3085 37.7004 22.8292C36.4422 22.0503 35.7232 20.7321 35.6034 18.7549H49.7433C49.7433 17.0773 49.6834 15.7592 49.5636 14.9204C49.3239 13.4225 48.7847 12.0445 48.0058 10.9061C47.1071 9.58794 45.9687 8.6293 44.6505 8.03015C43.2725 7.431 41.7746 7.13143 40.097 7.13143C37.2211 7.13143 34.9443 8.03015 33.1469 9.8276C31.3494 11.6251 30.4507 14.2014 30.4507 17.5566C30.4507 21.1515 31.4692 23.7279 33.4464 25.3456C35.4236 26.9633 37.7004 27.7422 40.2768 27.7422C43.3923 27.7422 45.8488 26.7835 47.5864 24.9262C48.545 23.9076 49.0843 22.949 49.3838 21.9903L44.0514 21.9304Z" fill="white"/>
<path d="M28.5307 27.2397H23.8574V15.4365C23.8574 14.358 23.4979 11.7817 20.4422 11.7817C18.4051 11.7817 16.9072 13.2796 16.9072 15.4365V27.2397H12.2339V15.4365C12.2339 14.358 11.9343 11.7817 8.81871 11.7817C6.72168 11.7817 5.28372 13.2796 5.28372 15.4365V27.2397H0.610352V15.5563C0.610352 10.7032 3.84576 7.04839 8.81871 7.04839C11.2752 7.04839 13.3123 8.06695 14.6305 9.74457C16.0085 8.06695 18.0456 7.04839 20.4422 7.04839C25.535 7.04839 28.5307 10.5834 28.5307 15.5563V27.2397Z" fill="white"/>
<path d="M116.469 21.8572C115.75 22.9357 114.612 23.4749 113.174 23.4749C111.736 23.4749 110.658 22.9357 109.939 21.8572C109.22 20.7787 108.86 19.2209 108.86 17.4235C108.86 15.7459 109.22 14.3678 109.879 13.2294C110.598 12.091 111.676 11.5518 113.174 11.5518C114.133 11.5518 115.031 11.8514 115.75 12.4505C116.949 13.4691 117.548 15.3265 117.548 17.6631C117.608 19.4007 117.188 20.7787 116.469 21.8572ZM122.581 0.946856C122.581 0.946856 117.428 0.407621 117.428 4.54176V10.0539C116.829 9.15521 116.11 8.43623 115.211 7.897C114.312 7.35776 113.234 7.1181 112.096 7.1181C109.519 7.1181 107.482 8.07674 105.984 9.99402C104.427 11.9113 103.708 14.6674 103.708 17.9627C103.708 20.8386 104.486 23.1753 106.044 25.0327C107.602 26.8901 110.658 27.6689 113.354 27.6689C122.76 27.6689 122.701 19.5804 122.701 19.5804L122.581 0.946856Z" fill="white"/>
<path d="M92.4421 42.2468C93.1611 41.5278 94.1796 41.1683 95.4378 41.1683C96.6361 41.1683 97.5948 41.5278 98.4336 42.1869C99.2125 42.9058 99.6918 43.9244 99.7517 45.2425H91.064C91.3037 43.9843 91.7231 42.9658 92.4421 42.2468ZM99.2724 51.7133C99.0327 52.0129 98.853 52.2526 98.5534 52.4922C97.8344 53.0914 96.8159 53.2711 95.6775 53.2711C94.599 53.2711 93.7602 53.0914 92.9813 52.6121C91.7231 51.8332 91.064 50.4551 90.9442 48.5379H104.964C104.964 46.8602 104.904 45.602 104.785 44.7033C104.545 43.2054 104.066 41.8873 103.227 40.689C102.328 39.3709 101.25 38.4122 99.8715 37.8131C98.5534 37.2139 96.9956 36.9143 95.318 36.9143C92.502 36.9143 90.1653 37.8131 88.4278 39.6105C86.6902 41.408 85.7915 43.9244 85.7915 47.2796C85.7915 50.8745 86.7501 53.391 88.7273 55.0087C90.7045 56.5665 92.9813 57.4053 95.4977 57.4053C98.6133 57.4053 101.01 56.4466 102.747 54.5893C103.706 53.6306 104.245 52.6121 104.485 51.6534H99.2724V51.7133Z" fill="white"/>
<path d="M84.9056 37.0205H84.6659C73.4019 37.0205 74.0609 47.0263 74.0609 47.0263V56.9722H79.1537V47.6254C79.1537 46.0676 79.3335 44.9293 79.7529 44.1504C80.4718 42.8322 81.8499 42.1732 83.887 42.1732H84.4862C84.7258 42.1732 85.0254 42.2331 85.325 42.2331V37.0205H84.9056Z" fill="white"/>
<path d="M39.4858 34.3826V56.9106H44.279V30.7278C44.339 30.7278 39.4858 30.548 39.4858 34.3826Z" fill="white"/>
<path d="M53.39 35.7902H48.25V30.7002H53.39V35.7902Z" fill="white"/>
<path d="M48.2402 56.97H53.3902V37.52H48.2402V56.97Z" fill="white"/>
<path d="M67.1776 56.9209H62.0267L55.2588 37.5155H60.6492L64.5423 51.1711L67.9562 39.2524C68.3754 38.0545 69.154 37.5155 70.292 37.5155H74.0653L67.1776 56.9209Z" fill="white"/>
</g>
<defs>
<clipPath id="clip0_302_65">
<rect width="144" height="58" fill="white"/>
</clipPath>
</defs>
</svg>
