<svg width="512" height="512" viewBox="0 0 512 512" fill="none" xmlns="http://www.w3.org/2000/svg">
<path d="M496 258.016L495.624 257.176C495.264 254.352 494.456 252.584 492.944 251.392C483.24 230.872 451.08 166.888 407.84 123.016C395.872 110.864 361.264 138.328 345.216 154.768C329.168 171.208 336.984 199 346.672 187.84C358.656 174.04 388.816 130.744 400 136.224C411.048 141.632 439.816 183.536 471.904 247.464C459.984 246.64 438.768 245.856 413.968 245.856C377.984 245.856 349.28 251.008 321 255.976C292.952 260.888 274.264 264.352 256 264.352C237.72 264.352 219.048 260.888 191 255.976C162.704 251.008 134.016 245.856 98.032 245.856C73.232 245.856 52.024 246.64 40.096 247.456C72.176 183.536 100.952 141.624 112 136.224C123.184 130.744 153.328 174.04 165.312 187.84C175 199.008 182.824 171.208 166.768 154.768C150.72 138.328 116.128 110.864 104.144 123.016C60.92 166.88 28.768 230.872 19.064 251.392C17.552 252.576 16.736 254.36 16.376 257.176L16 258.016L16.248 257.928C16 260.52 16 263.904 16 268.408C16 295.112 19.064 299.76 20.36 301.344C22.112 303.504 27.032 306.488 28.624 308.768C30.968 312.112 31.808 322.44 32.936 328.4C41.872 375.632 54.2 392 124.528 392C190 392 222.264 372.56 234.576 324.544C235.496 320.96 237.12 305.608 238.12 302.04C238.512 300.632 239.808 298.528 243.216 298C247.76 297.568 251.904 297.368 256 297.368C260.096 297.368 264.216 297.568 268.784 298C272.176 298.52 273.488 300.632 273.88 302.04C274.864 305.608 276.504 320.96 277.424 324.544C289.736 372.56 322 392 387.472 392C457.8 392 470.128 375.632 479.048 328.4C480.176 322.44 481.032 312.112 483.376 308.768C484.968 306.488 489.88 303.504 491.64 301.344C492.936 299.76 496 295.112 496 268.408C496 263.904 496 260.528 495.752 257.928L496 258.016ZM222.576 306.224C221.532 310.951 220.38 315.654 219.12 320.328C210.304 353.592 190.84 375.768 124.528 375.768C60.264 375.768 54.56 362.36 48.512 324.704C46.264 310.648 41.416 295.096 46.952 282.032C50.032 274.768 55.328 264.568 73.92 264.568C87.496 264.568 154.672 265.456 195.968 274.352C208.016 276.968 227.624 281.496 222.576 306.224ZM463.472 324.704C457.424 362.36 451.736 375.768 387.472 375.768C321.144 375.768 301.688 353.6 292.88 320.328C291.63 315.65 290.472 310.948 289.408 306.224C284.376 281.488 303.984 276.968 316.032 274.352C357.328 265.464 424.504 264.568 438.08 264.568C456.656 264.568 461.968 274.76 465.032 282.032C470.576 295.096 465.736 310.648 463.472 324.704Z" fill="#053553"/>
</svg>
