<svg width="512" height="512" viewBox="0 0 512 512" fill="none" xmlns="http://www.w3.org/2000/svg">
<g clip-path="url(#clip0_255_76)">
<path fill-rule="evenodd" clip-rule="evenodd" d="M252.864 336.312C222.622 336.312 198.018 359.216 198.018 387.368C198.018 400.737 205.897 408.719 219.093 408.719C225.149 408.719 231.796 407.179 238.223 405.691L238.234 405.689L238.261 405.682C243.574 404.452 249.065 403.181 252.864 403.181C256.177 403.181 261.405 404.4 266.461 405.578C273.082 407.122 279.93 408.719 286.246 408.719C299.686 408.717 307.711 400.737 307.711 387.368C307.71 359.216 283.107 336.312 252.864 336.312ZM286.244 391.186C288.908 391.186 289.65 390.654 289.657 390.649C289.78 390.494 290.179 389.518 290.179 387.365C290.179 368.879 273.44 353.84 252.864 353.84C232.288 353.84 215.549 368.879 215.549 387.365C215.549 389.899 216.05 390.723 216.089 390.784C216.1 390.743 216.842 391.185 219.093 391.185C223.149 391.185 228.807 389.876 234.278 388.607C240.559 387.152 247.055 385.648 252.864 385.648C258.193 385.648 264.143 387.035 270.441 388.504C276.096 389.823 281.945 391.186 286.244 391.186Z" fill="#053553"/>
<path fill-rule="evenodd" clip-rule="evenodd" d="M225.572 319.571C225.572 304.141 214.869 291.587 201.712 291.587C188.555 291.587 177.85 304.141 177.85 319.571C177.85 335.002 188.555 347.555 201.712 347.555C214.869 347.554 225.572 335 225.572 319.571ZM201.713 309.119C198.725 309.119 195.383 313.589 195.383 319.571C195.383 325.552 198.724 330.023 201.713 330.024C204.701 330.024 208.042 325.553 208.042 319.571C208.042 313.589 204.701 309.119 201.713 309.119Z" fill="#053553"/>
<path fill-rule="evenodd" clip-rule="evenodd" d="M254.453 330.249C267.609 330.249 278.314 317.695 278.314 302.265C278.314 286.835 267.609 274.281 254.453 274.281C241.296 274.281 230.593 286.835 230.593 302.265C230.593 317.695 241.296 330.249 254.453 330.249ZM260.783 302.266C260.783 296.284 257.441 291.813 254.453 291.813C251.465 291.813 248.124 296.284 248.124 302.266C248.124 308.248 251.465 312.719 254.453 312.719C257.441 312.719 260.783 308.248 260.783 302.266Z" fill="#053553"/>
<path fill-rule="evenodd" clip-rule="evenodd" d="M307.194 291.587C294.037 291.587 283.333 304.141 283.333 319.571C283.333 335.002 294.037 347.555 307.194 347.555C320.352 347.555 331.056 335.002 331.056 319.571C331.056 304.141 320.352 291.587 307.194 291.587ZM300.864 319.57C300.864 325.552 304.207 330.023 307.194 330.023C310.182 330.023 313.525 325.552 313.525 319.57C313.525 313.588 310.182 309.117 307.194 309.117C304.206 309.117 300.864 313.588 300.864 319.57Z" fill="#053553"/>
<path fill-rule="evenodd" clip-rule="evenodd" d="M498.875 174.344L273.07 5.48309C268.273 1.89748 262.559 0.00103124 256.545 0.00103124L256.431 0.00206247L256.417 0.00180367C256.368 0.000865543 256.322 0 256.284 0L256.106 0.00309371C256.04 0.00103124 255.976 0.00206247 255.911 0.00206247L255.715 0C255.677 0 255.63 0.000900156 255.58 0.00185946L255.57 0.00206247L255.455 0.00103124C249.441 0.00103124 243.727 1.89748 238.931 5.48309L13.1268 174.345C0.929365 183.466 -1.57551 200.813 7.54475 213.014L26.4638 238.313C31.654 245.253 39.9297 249.394 48.6024 249.394C53.0068 249.394 57.2555 248.36 61.1103 246.39V484.373C61.1103 499.607 73.5048 512 88.7382 512H423.263C438.497 512 450.891 499.607 450.891 484.373V246.389C454.746 248.36 458.994 249.395 463.399 249.395C472.071 249.395 480.348 245.251 485.537 238.313L504.457 213.012C513.576 200.813 511.072 183.466 498.875 174.344ZM88.7382 494.469H423.263C428.83 494.469 433.36 489.941 433.36 484.373V233.789L256.002 101.159L78.6413 233.79V484.373C78.6413 489.94 83.1705 494.469 88.7382 494.469ZM471.496 227.814L490.416 202.514C493.747 198.057 492.834 191.717 488.376 188.383L262.571 19.5244C260.829 18.2209 258.745 17.5321 256.545 17.5321C256.47 17.5331 256.37 17.5321 256.271 17.5321L256.072 17.5341C256.034 17.5352 255.981 17.5352 255.931 17.5341L255.752 17.5321C255.685 17.5341 255.619 17.5331 255.552 17.5331H255.549C253.255 17.5331 251.171 18.2209 249.43 19.5244L23.6248 188.384C19.1668 191.717 18.2521 198.057 21.585 202.516L40.5031 227.813C42.4284 230.387 45.3808 231.863 48.6024 231.863C50.7876 231.863 52.8738 231.168 54.6341 229.852L250.753 83.193C252.309 82.0298 254.156 81.4482 256.002 81.4482C257.848 81.4482 259.695 82.0298 261.251 83.193L457.366 229.851C459.127 231.168 461.213 231.864 463.398 231.864C466.621 231.864 469.572 230.388 471.496 227.814Z" fill="#053553"/>
<path fill-rule="evenodd" clip-rule="evenodd" d="M320.9 214.853C296.043 214.853 272.922 224.788 256.001 242.435C239.079 224.788 215.957 214.853 191.102 214.853C141.418 214.853 100.996 255.274 100.996 304.959C100.996 328.13 109.229 351.471 125.465 374.337C138.099 392.13 155.619 409.7 177.537 426.561C214.485 454.982 250.874 471.483 252.406 472.171C253.547 472.684 254.774 472.942 256.001 472.942C257.08 472.942 258.163 472.743 259.189 472.342C260.726 471.742 297.262 457.324 334.332 429.905C356.329 413.636 373.909 396.145 386.585 377.917C402.789 354.62 411.005 330.073 411.005 304.959C411.005 255.274 370.585 214.853 320.9 214.853ZM118.528 304.959C118.528 384.035 234.778 444.168 256.227 454.585C277.772 445.31 393.474 391.444 393.474 304.959C393.474 264.94 360.918 232.384 320.9 232.384C297.962 232.384 276.854 242.891 262.99 261.213C261.333 263.403 258.747 264.69 256.001 264.69C253.255 264.69 250.667 263.403 249.011 261.213C235.146 242.891 214.04 232.384 191.102 232.384C151.084 232.384 118.528 264.94 118.528 304.959Z" fill="#053553"/>
</g>
<defs>
<clipPath id="clip0_255_76">
<rect width="512" height="512" fill="white"/>
</clipPath>
</defs>
</svg>
