<svg width="512" height="512" viewBox="0 0 512 512" fill="none" xmlns="http://www.w3.org/2000/svg">
<path d="M110.336 112.384H401.664C412.595 112.384 423.078 116.726 430.808 124.456C438.537 132.185 442.88 142.669 442.88 153.6V358.4C442.88 369.331 438.537 379.814 430.808 387.544C423.078 395.273 412.595 399.616 401.664 399.616H110.336C99.4047 399.616 88.9213 395.273 81.1918 387.544C73.4623 379.814 69.1199 369.331 69.1199 358.4V153.6C69.1199 142.669 73.4623 132.185 81.1918 124.456C88.9213 116.726 99.4047 112.384 110.336 112.384ZM401.664 128H110.336C103.546 128 97.0349 130.697 92.234 135.498C87.433 140.299 84.7359 146.81 84.7359 153.6V172.032H427.264V153.6C427.264 146.81 424.567 140.299 419.766 135.498C414.965 130.697 408.453 128 401.664 128ZM110.336 384H401.664C408.453 384 414.965 381.303 419.766 376.502C424.567 371.701 427.264 365.189 427.264 358.4V187.648H84.7359V358.4C84.7359 361.762 85.398 365.091 86.6845 368.196C87.9711 371.302 89.8568 374.125 92.234 376.502C94.6111 378.879 97.4332 380.765 100.539 382.051C103.645 383.338 106.974 384 110.336 384Z" fill="#003658"/>
<path d="M401.664 160.256C399.907 160.411 398.144 160.028 396.61 159.159C395.075 158.29 393.841 156.976 393.07 155.39C392.299 153.803 392.028 152.02 392.293 150.277C392.559 148.533 393.347 146.911 394.555 145.626C395.762 144.341 397.332 143.452 399.055 143.079C400.779 142.705 402.575 142.864 404.206 143.534C405.838 144.205 407.227 145.355 408.19 146.832C409.153 148.31 409.645 150.045 409.6 151.808C409.545 153.945 408.706 155.987 407.242 157.545C405.779 159.103 403.793 160.068 401.664 160.256Z" fill="#003658"/>
<path d="M379.904 160.256C378.162 160.306 376.444 159.833 374.974 158.896C373.504 157.96 372.349 156.603 371.659 155.003C370.969 153.402 370.775 151.631 371.103 149.919C371.43 148.208 372.264 146.633 373.497 145.401C374.729 144.168 376.303 143.334 378.015 143.007C379.727 142.679 381.498 142.873 383.099 143.563C384.699 144.254 386.055 145.408 386.992 146.878C387.929 148.348 388.402 150.066 388.352 151.808C388.287 154.028 387.377 156.14 385.806 157.71C384.236 159.281 382.124 160.192 379.904 160.256Z" fill="#003658"/>
<path d="M358.4 160.256C356.658 160.306 354.94 159.833 353.47 158.896C352 157.96 350.846 156.603 350.155 155.003C349.465 153.402 349.271 151.631 349.599 149.919C349.926 148.208 350.76 146.633 351.993 145.401C353.225 144.168 354.8 143.334 356.511 143.007C358.223 142.679 359.994 142.873 361.595 143.563C363.195 144.254 364.552 145.408 365.488 146.878C366.425 148.348 366.898 150.066 366.848 151.808C366.784 154.028 365.873 156.14 364.302 157.71C362.732 159.281 360.62 160.192 358.4 160.256Z" fill="#003658"/>
<path d="M230.4 262.912L240.384 285.44L250.624 262.912C250.624 262.912 250.624 262.912 252.416 261.12C254.208 259.328 252.416 259.584 254.464 259.072C254.464 259.072 256.256 259.072 257.28 259.072C258.27 258.698 259.362 258.698 260.352 259.072C260.352 259.072 261.888 260.608 262.4 261.12C262.912 261.632 263.936 261.12 264.448 262.912L274.432 285.44L284.416 262.912C284.777 261.81 285.368 260.797 286.151 259.94C286.933 259.084 287.888 258.403 288.953 257.943C290.017 257.483 291.168 257.255 292.327 257.273C293.487 257.291 294.63 257.555 295.68 258.048C296.609 258.462 297.447 259.057 298.144 259.799C298.841 260.54 299.384 261.412 299.741 262.365C300.099 263.317 300.263 264.332 300.225 265.348C300.187 266.365 299.947 267.364 299.52 268.288L281.6 309.248C280.743 310.738 279.506 311.975 278.016 312.832H274.944H271.872C270.287 312.012 268.959 310.772 268.032 309.248L258.048 286.464L247.808 309.248C246.951 310.738 245.714 311.975 244.224 312.832C243.13 313.093 241.99 313.093 240.896 312.832H237.824C236.333 311.975 235.097 310.738 234.24 309.248L216.832 270.592C216.054 268.687 216.046 266.554 216.81 264.644C217.575 262.734 219.051 261.195 220.928 260.352C222.557 259.606 224.396 259.454 226.126 259.922C227.856 260.389 229.368 261.447 230.4 262.912Z" fill="#003658"/>
<path d="M142.848 262.912L152.832 285.44L163.072 262.912C163.072 262.912 164.352 262.912 164.864 261.12C165.376 259.328 164.864 259.584 166.912 259.072C167.902 258.698 168.994 258.698 169.984 259.072C169.984 259.072 171.776 259.072 172.8 259.072C172.8 259.072 174.08 260.352 174.848 261.12C175.616 261.888 176.384 261.12 176.64 262.912L186.88 285.44L196.864 262.912C197.278 261.982 197.874 261.145 198.615 260.448C199.356 259.75 200.228 259.207 201.181 258.85C202.133 258.493 203.148 258.328 204.164 258.366C205.181 258.404 206.18 258.644 207.104 259.072C208.055 259.462 208.919 260.04 209.643 260.77C210.367 261.501 210.937 262.37 211.319 263.325C211.701 264.28 211.888 265.302 211.867 266.33C211.847 267.359 211.62 268.373 211.2 269.312L194.304 309.248C193.447 310.738 192.21 311.975 190.72 312.832H187.648C186.554 313.093 185.414 313.093 184.32 312.832C182.265 312.233 180.466 310.973 179.2 309.248L168.96 286.464L158.976 309.248C158.119 310.738 156.882 311.975 155.392 312.832C154.295 313.067 153.161 313.067 152.064 312.832H148.992C147.429 311.982 146.107 310.748 145.152 309.248L128 269.312C127.58 268.373 127.353 267.359 127.332 266.33C127.312 265.302 127.498 264.28 127.88 263.325C128.262 262.37 128.832 261.501 129.556 260.77C130.281 260.04 131.144 259.462 132.096 259.072C133.043 258.56 134.087 258.254 135.161 258.172C136.234 258.09 137.313 258.235 138.327 258.597C139.341 258.959 140.267 259.531 141.046 260.274C141.825 261.017 142.439 261.916 142.848 262.912Z" fill="#003658"/>
<path d="M318.464 262.912L328.448 285.44L338.432 262.912C338.999 262.262 339.697 261.738 340.48 261.376C340.764 260.066 341.486 258.892 342.528 258.048C343.518 257.674 344.61 257.674 345.6 258.048C345.6 258.048 347.392 258.048 348.416 258.048L350.464 260.096C350.464 260.096 352 260.096 352.256 261.888L362.496 284.416L372.48 261.888C372.868 260.782 373.504 259.779 374.339 258.957C375.174 258.135 376.187 257.514 377.299 257.144C378.411 256.773 379.593 256.662 380.754 256.818C381.916 256.975 383.026 257.396 384 258.048C385.877 258.891 387.353 260.43 388.117 262.34C388.882 264.25 388.874 266.383 388.096 268.288L369.92 309.248C369.063 310.738 367.826 311.975 366.336 312.832H363.264C362.17 313.093 361.03 313.093 359.936 312.832H358.4C357.284 311.849 356.408 310.622 355.84 309.248L345.6 286.464L335.616 309.248C334.759 310.738 333.522 311.975 332.032 312.832H328.96H325.888C324.021 312.137 322.413 310.886 321.28 309.248L304.128 270.592C303.244 269.659 302.608 268.519 302.279 267.277C301.949 266.035 301.937 264.73 302.243 263.482C302.548 262.234 303.162 261.082 304.028 260.133C304.895 259.183 305.985 258.467 307.2 258.048C308.25 257.555 309.393 257.291 310.552 257.273C311.712 257.255 312.862 257.483 313.927 257.943C314.992 258.403 315.947 259.084 316.729 259.94C317.511 260.797 318.103 261.81 318.464 262.912Z" fill="#003658"/>
</svg>
