<svg width="512" height="512" viewBox="0 0 512 512" fill="none" xmlns="http://www.w3.org/2000/svg">
<g clip-path="url(#clip0_252_25)">
<path d="M283.267 197.133C281.215 197.196 279.241 198.049 277.788 199.533L236.137 241.058L210.481 215.48C203.297 207.996 191.692 219.553 199.191 226.722L230.501 257.952C233.611 261.062 238.664 261.062 241.79 257.952L289.078 210.791C294.288 205.738 290.451 197.133 283.283 197.133H283.267ZM7.89444 260.289H55.2611C59.6346 260.289 63.1555 263.81 63.1555 268.183C63.1555 272.557 59.6346 276.078 55.2611 276.078H7.89444C3.52092 276.078 0 272.557 0 268.183C0 263.81 3.52092 260.289 7.89444 260.289ZM25.4719 197.133H72.8385C77.212 197.133 80.733 200.654 80.733 205.028C80.733 209.401 77.212 212.922 72.8385 212.922H25.4719C21.0984 212.922 17.5775 209.401 17.5775 205.028C17.5775 200.654 21.0984 197.133 25.4719 197.133ZM46.7499 133.978H94.1165C98.49 133.978 102.011 137.499 102.011 141.872C102.011 146.246 98.49 149.767 94.1165 149.767H46.7499C42.3764 149.767 38.8554 146.246 38.8554 141.872C38.8554 137.499 42.3764 133.978 46.7499 133.978ZM425.683 307.655C403.973 307.655 386.211 325.418 386.211 347.128C386.211 368.837 403.973 386.6 425.683 386.6C447.393 386.6 465.155 368.837 465.155 347.128C465.155 325.418 447.393 307.655 425.683 307.655ZM425.683 323.444C438.851 323.444 449.366 333.96 449.366 347.128C449.366 360.296 438.851 370.811 425.683 370.811C412.515 370.811 402 360.296 402 347.128C402 333.96 412.515 323.444 425.683 323.444ZM220.427 307.655C198.718 307.655 180.955 325.418 180.955 347.128C180.955 368.837 198.718 386.6 220.427 386.6C242.137 386.6 259.9 368.837 259.9 347.128C259.9 325.418 242.137 307.655 220.427 307.655ZM220.427 323.444C233.595 323.444 244.111 333.96 244.111 347.128C244.111 360.296 233.595 370.811 220.427 370.811C207.26 370.811 196.744 360.296 196.744 347.128C196.744 333.96 207.26 323.444 220.427 323.444ZM141.483 102.4C128.505 102.4 117.8 113.105 117.8 126.083V299.761C117.8 312.739 128.505 323.444 141.483 323.444H173.061C183.734 323.602 183.734 307.498 173.061 307.655H141.483C136.968 307.655 133.589 304.277 133.589 299.761V126.083C133.589 121.568 136.968 118.189 141.483 118.189H346.738C351.254 118.189 354.633 121.568 354.633 126.083V307.655H267.794C257.373 307.655 257.563 323.602 267.794 323.444H378.316C388.737 323.444 388.642 307.655 378.316 307.655H370.422V165.555H437.161L496.733 258.647V299.761C496.733 304.277 493.354 307.655 488.838 307.655H473.049C462.724 307.655 462.724 323.444 473.049 323.444H488.838C501.817 323.444 512.522 312.739 512.522 299.761V256.342C512.522 254.842 512.095 253.342 511.29 252.079L448.135 153.398C446.682 151.14 444.187 149.767 441.472 149.767H370.422V126.083C370.422 113.105 359.717 102.4 346.738 102.4H141.483Z" fill="#003658"/>
</g>
<defs>
<clipPath id="clip0_252_25">
<rect width="512" height="512" fill="white"/>
</clipPath>
</defs>
</svg>
